<mxfile host="app.diagrams.net" modified="2021-03-16T20:31:59.264Z" agent="5.0 (X11)" etag="6nvOk7C3r8Ug4AYyn8cX" version="14.4.8" type="github">
  <diagram id="6a731a19-8d31-9384-78a2-239565b7b9f0" name="Page-1">
    <mxGraphModel dx="2595" dy="1518" grid="1" gridSize="10" guides="1" tooltips="1" connect="1" arrows="1" fold="1" page="1" pageScale="1" pageWidth="1169" pageHeight="827" background="#ffffff" math="0" shadow="0">
      <root>
        <mxCell id="0" />
        <mxCell id="1" parent="0" />
        <mxCell id="Tn-8CT3KJRF8G7JqvR9h-2226" value="" style="rounded=0;whiteSpace=wrap;html=1;" vertex="1" parent="1">
          <mxGeometry x="650" y="260" width="480" height="480" as="geometry" />
        </mxCell>
        <mxCell id="Tn-8CT3KJRF8G7JqvR9h-2229" style="edgeStyle=orthogonalEdgeStyle;rounded=0;orthogonalLoop=1;jettySize=auto;html=1;exitX=0.25;exitY=1;exitDx=0;exitDy=0;entryX=0.5;entryY=0;entryDx=0;entryDy=0;endArrow=classic;endFill=1;" edge="1" parent="1" source="Tn-8CT3KJRF8G7JqvR9h-2185" target="Tn-8CT3KJRF8G7JqvR9h-2187">
          <mxGeometry relative="1" as="geometry" />
        </mxCell>
        <mxCell id="Tn-8CT3KJRF8G7JqvR9h-2232" style="edgeStyle=orthogonalEdgeStyle;rounded=0;orthogonalLoop=1;jettySize=auto;html=1;exitX=0.5;exitY=1;exitDx=0;exitDy=0;entryX=0.5;entryY=0;entryDx=0;entryDy=0;endArrow=classic;endFill=1;" edge="1" parent="1" source="Tn-8CT3KJRF8G7JqvR9h-2185" target="Tn-8CT3KJRF8G7JqvR9h-2227">
          <mxGeometry relative="1" as="geometry" />
        </mxCell>
        <mxCell id="Tn-8CT3KJRF8G7JqvR9h-2233" style="edgeStyle=orthogonalEdgeStyle;rounded=0;orthogonalLoop=1;jettySize=auto;html=1;exitX=0.75;exitY=1;exitDx=0;exitDy=0;entryX=0.5;entryY=0;entryDx=0;entryDy=0;endArrow=classic;endFill=1;" edge="1" parent="1" source="Tn-8CT3KJRF8G7JqvR9h-2185" target="Tn-8CT3KJRF8G7JqvR9h-2228">
          <mxGeometry relative="1" as="geometry" />
        </mxCell>
        <mxCell id="Tn-8CT3KJRF8G7JqvR9h-2254" style="edgeStyle=orthogonalEdgeStyle;rounded=0;orthogonalLoop=1;jettySize=auto;html=1;exitX=0.5;exitY=0;exitDx=0;exitDy=0;entryX=0.591;entryY=1.015;entryDx=0;entryDy=0;entryPerimeter=0;endArrow=classic;endFill=1;" edge="1" parent="1" source="Tn-8CT3KJRF8G7JqvR9h-2185" target="Tn-8CT3KJRF8G7JqvR9h-2186">
          <mxGeometry relative="1" as="geometry" />
        </mxCell>
        <mxCell id="Tn-8CT3KJRF8G7JqvR9h-2185" value="dao fincubator" style="rounded=0;whiteSpace=wrap;html=1;" vertex="1" parent="1">
          <mxGeometry x="200" y="100" width="220" height="100" as="geometry" />
        </mxCell>
        <mxCell id="Tn-8CT3KJRF8G7JqvR9h-2186" value="&lt;div&gt;stableswap&lt;/div&gt;&lt;div&gt;1 FINTEH = 1 USDT&lt;br&gt;&lt;/div&gt;" style="rounded=0;whiteSpace=wrap;html=1;" vertex="1" parent="1">
          <mxGeometry x="237.5" y="10" width="120" height="60" as="geometry" />
        </mxCell>
        <mxCell id="Tn-8CT3KJRF8G7JqvR9h-2187" value="dao tellerbot" style="rounded=0;whiteSpace=wrap;html=1;" vertex="1" parent="1">
          <mxGeometry x="60" y="310" width="170" height="230" as="geometry" />
        </mxCell>
        <mxCell id="Tn-8CT3KJRF8G7JqvR9h-2234" style="edgeStyle=orthogonalEdgeStyle;rounded=0;orthogonalLoop=1;jettySize=auto;html=1;exitX=0.5;exitY=1;exitDx=0;exitDy=0;endArrow=classic;endFill=1;" edge="1" parent="1" source="Tn-8CT3KJRF8G7JqvR9h-2188" target="Tn-8CT3KJRF8G7JqvR9h-2226">
          <mxGeometry relative="1" as="geometry" />
        </mxCell>
        <mxCell id="Tn-8CT3KJRF8G7JqvR9h-2235" style="edgeStyle=orthogonalEdgeStyle;rounded=0;orthogonalLoop=1;jettySize=auto;html=1;exitX=0;exitY=0.5;exitDx=0;exitDy=0;endArrow=classic;endFill=1;" edge="1" parent="1" source="Tn-8CT3KJRF8G7JqvR9h-2188" target="Tn-8CT3KJRF8G7JqvR9h-2185">
          <mxGeometry relative="1" as="geometry" />
        </mxCell>
        <mxCell id="Tn-8CT3KJRF8G7JqvR9h-2188" value="dao fintech association" style="rounded=0;whiteSpace=wrap;html=1;" vertex="1" parent="1">
          <mxGeometry x="780" y="100" width="220" height="100" as="geometry" />
        </mxCell>
        <mxCell id="Tn-8CT3KJRF8G7JqvR9h-2198" style="edgeStyle=orthogonalEdgeStyle;rounded=0;orthogonalLoop=1;jettySize=auto;html=1;exitX=0.5;exitY=1;exitDx=0;exitDy=0;entryX=0.5;entryY=0;entryDx=0;entryDy=0;" edge="1" parent="1" source="Tn-8CT3KJRF8G7JqvR9h-2191" target="Tn-8CT3KJRF8G7JqvR9h-2192">
          <mxGeometry relative="1" as="geometry" />
        </mxCell>
        <mxCell id="Tn-8CT3KJRF8G7JqvR9h-2207" style="edgeStyle=orthogonalEdgeStyle;rounded=0;orthogonalLoop=1;jettySize=auto;html=1;exitX=1;exitY=0.5;exitDx=0;exitDy=0;entryX=0;entryY=0.5;entryDx=0;entryDy=0;endArrow=none;endFill=0;" edge="1" parent="1" source="Tn-8CT3KJRF8G7JqvR9h-2191" target="Tn-8CT3KJRF8G7JqvR9h-2206">
          <mxGeometry relative="1" as="geometry" />
        </mxCell>
        <mxCell id="Tn-8CT3KJRF8G7JqvR9h-2191" value="supporter" style="rounded=1;whiteSpace=wrap;html=1;" vertex="1" parent="1">
          <mxGeometry x="690" y="310" width="120" height="60" as="geometry" />
        </mxCell>
        <mxCell id="Tn-8CT3KJRF8G7JqvR9h-2199" style="edgeStyle=orthogonalEdgeStyle;rounded=0;orthogonalLoop=1;jettySize=auto;html=1;exitX=0.5;exitY=1;exitDx=0;exitDy=0;entryX=0.5;entryY=0;entryDx=0;entryDy=0;" edge="1" parent="1" source="Tn-8CT3KJRF8G7JqvR9h-2192" target="Tn-8CT3KJRF8G7JqvR9h-2193">
          <mxGeometry relative="1" as="geometry" />
        </mxCell>
        <mxCell id="Tn-8CT3KJRF8G7JqvR9h-2212" style="edgeStyle=orthogonalEdgeStyle;rounded=0;orthogonalLoop=1;jettySize=auto;html=1;exitX=1;exitY=0.5;exitDx=0;exitDy=0;entryX=0;entryY=0.5;entryDx=0;entryDy=0;endArrow=none;endFill=0;" edge="1" parent="1" source="Tn-8CT3KJRF8G7JqvR9h-2192" target="Tn-8CT3KJRF8G7JqvR9h-2208">
          <mxGeometry relative="1" as="geometry" />
        </mxCell>
        <mxCell id="Tn-8CT3KJRF8G7JqvR9h-2192" value="member" style="rounded=1;whiteSpace=wrap;html=1;" vertex="1" parent="1">
          <mxGeometry x="690" y="390" width="120" height="60" as="geometry" />
        </mxCell>
        <mxCell id="Tn-8CT3KJRF8G7JqvR9h-2200" style="edgeStyle=orthogonalEdgeStyle;rounded=0;orthogonalLoop=1;jettySize=auto;html=1;exitX=0.5;exitY=1;exitDx=0;exitDy=0;entryX=0.5;entryY=0;entryDx=0;entryDy=0;" edge="1" parent="1" source="Tn-8CT3KJRF8G7JqvR9h-2193" target="Tn-8CT3KJRF8G7JqvR9h-2194">
          <mxGeometry relative="1" as="geometry" />
        </mxCell>
        <mxCell id="Tn-8CT3KJRF8G7JqvR9h-2218" style="edgeStyle=orthogonalEdgeStyle;rounded=0;orthogonalLoop=1;jettySize=auto;html=1;exitX=1;exitY=0.5;exitDx=0;exitDy=0;endArrow=none;endFill=0;" edge="1" parent="1" source="Tn-8CT3KJRF8G7JqvR9h-2193" target="Tn-8CT3KJRF8G7JqvR9h-2209">
          <mxGeometry relative="1" as="geometry" />
        </mxCell>
        <mxCell id="Tn-8CT3KJRF8G7JqvR9h-2193" value="expert" style="rounded=1;whiteSpace=wrap;html=1;" vertex="1" parent="1">
          <mxGeometry x="690" y="470" width="120" height="60" as="geometry" />
        </mxCell>
        <mxCell id="Tn-8CT3KJRF8G7JqvR9h-2201" style="edgeStyle=orthogonalEdgeStyle;rounded=0;orthogonalLoop=1;jettySize=auto;html=1;exitX=0.5;exitY=1;exitDx=0;exitDy=0;entryX=0.5;entryY=0;entryDx=0;entryDy=0;" edge="1" parent="1" source="Tn-8CT3KJRF8G7JqvR9h-2194" target="Tn-8CT3KJRF8G7JqvR9h-2195">
          <mxGeometry relative="1" as="geometry" />
        </mxCell>
        <mxCell id="Tn-8CT3KJRF8G7JqvR9h-2219" style="edgeStyle=orthogonalEdgeStyle;rounded=0;orthogonalLoop=1;jettySize=auto;html=1;exitX=1;exitY=0.5;exitDx=0;exitDy=0;entryX=0;entryY=0.5;entryDx=0;entryDy=0;endArrow=none;endFill=0;" edge="1" parent="1" source="Tn-8CT3KJRF8G7JqvR9h-2194" target="Tn-8CT3KJRF8G7JqvR9h-2210">
          <mxGeometry relative="1" as="geometry" />
        </mxCell>
        <mxCell id="Tn-8CT3KJRF8G7JqvR9h-2194" value="direction" style="rounded=1;whiteSpace=wrap;html=1;" vertex="1" parent="1">
          <mxGeometry x="690" y="550" width="120" height="60" as="geometry" />
        </mxCell>
        <mxCell id="Tn-8CT3KJRF8G7JqvR9h-2220" style="edgeStyle=orthogonalEdgeStyle;rounded=0;orthogonalLoop=1;jettySize=auto;html=1;exitX=1;exitY=0.5;exitDx=0;exitDy=0;entryX=0;entryY=0.5;entryDx=0;entryDy=0;endArrow=none;endFill=0;" edge="1" parent="1" source="Tn-8CT3KJRF8G7JqvR9h-2195" target="Tn-8CT3KJRF8G7JqvR9h-2211">
          <mxGeometry relative="1" as="geometry" />
        </mxCell>
        <mxCell id="Tn-8CT3KJRF8G7JqvR9h-2195" value="president" style="rounded=1;whiteSpace=wrap;html=1;" vertex="1" parent="1">
          <mxGeometry x="690" y="630" width="120" height="60" as="geometry" />
        </mxCell>
        <mxCell id="Tn-8CT3KJRF8G7JqvR9h-2196" value="&lt;div&gt;member registration system with 14 days voting &lt;/div&gt;" style="text;html=1;strokeColor=none;fillColor=none;align=center;verticalAlign=middle;whiteSpace=wrap;rounded=0;" vertex="1" parent="1">
          <mxGeometry x="670" y="270" width="150" height="20" as="geometry" />
        </mxCell>
        <mxCell id="Tn-8CT3KJRF8G7JqvR9h-2221" style="edgeStyle=orthogonalEdgeStyle;rounded=0;orthogonalLoop=1;jettySize=auto;html=1;exitX=1;exitY=0.5;exitDx=0;exitDy=0;entryX=0;entryY=0.5;entryDx=0;entryDy=0;endArrow=none;endFill=0;" edge="1" parent="1" source="Tn-8CT3KJRF8G7JqvR9h-2206" target="Tn-8CT3KJRF8G7JqvR9h-2213">
          <mxGeometry relative="1" as="geometry" />
        </mxCell>
        <mxCell id="Tn-8CT3KJRF8G7JqvR9h-2206" value="without voting" style="rounded=0;whiteSpace=wrap;html=1;" vertex="1" parent="1">
          <mxGeometry x="840" y="310" width="120" height="60" as="geometry" />
        </mxCell>
        <mxCell id="Tn-8CT3KJRF8G7JqvR9h-2222" style="edgeStyle=orthogonalEdgeStyle;rounded=0;orthogonalLoop=1;jettySize=auto;html=1;exitX=1;exitY=0.5;exitDx=0;exitDy=0;entryX=0;entryY=0.5;entryDx=0;entryDy=0;endArrow=none;endFill=0;" edge="1" parent="1" source="Tn-8CT3KJRF8G7JqvR9h-2208" target="Tn-8CT3KJRF8G7JqvR9h-2214">
          <mxGeometry relative="1" as="geometry" />
        </mxCell>
        <mxCell id="Tn-8CT3KJRF8G7JqvR9h-2208" value="&lt;div&gt;fee 1000&lt;/div&gt;&lt;div&gt;approve threshold&lt;/div&gt;&lt;div&gt;&amp;gt;= 10 &amp;amp; &amp;gt;=10%&lt;/div&gt;&lt;div&gt;can voting&lt;/div&gt;" style="rounded=0;whiteSpace=wrap;html=1;" vertex="1" parent="1">
          <mxGeometry x="840" y="390" width="120" height="60" as="geometry" />
        </mxCell>
        <mxCell id="Tn-8CT3KJRF8G7JqvR9h-2223" style="edgeStyle=orthogonalEdgeStyle;rounded=0;orthogonalLoop=1;jettySize=auto;html=1;exitX=1;exitY=0.5;exitDx=0;exitDy=0;entryX=0;entryY=0.5;entryDx=0;entryDy=0;endArrow=none;endFill=0;" edge="1" parent="1" source="Tn-8CT3KJRF8G7JqvR9h-2209" target="Tn-8CT3KJRF8G7JqvR9h-2215">
          <mxGeometry relative="1" as="geometry" />
        </mxCell>
        <mxCell id="Tn-8CT3KJRF8G7JqvR9h-2209" value="&lt;div&gt;fee 100&lt;/div&gt;&lt;div&gt;approve threshold&lt;/div&gt;&lt;div&gt;&amp;gt;= 10 &amp;amp; &amp;gt;=10% with one year holding&lt;br&gt;&lt;/div&gt;&lt;div&gt;can voting&lt;/div&gt;" style="rounded=0;whiteSpace=wrap;html=1;" vertex="1" parent="1">
          <mxGeometry x="840" y="460" width="120" height="80" as="geometry" />
        </mxCell>
        <mxCell id="Tn-8CT3KJRF8G7JqvR9h-2224" style="edgeStyle=orthogonalEdgeStyle;rounded=0;orthogonalLoop=1;jettySize=auto;html=1;exitX=1;exitY=0.5;exitDx=0;exitDy=0;entryX=0;entryY=0.5;entryDx=0;entryDy=0;endArrow=none;endFill=0;" edge="1" parent="1" source="Tn-8CT3KJRF8G7JqvR9h-2210" target="Tn-8CT3KJRF8G7JqvR9h-2216">
          <mxGeometry relative="1" as="geometry" />
        </mxCell>
        <mxCell id="Tn-8CT3KJRF8G7JqvR9h-2210" value="&lt;div&gt;fee 1000&lt;/div&gt;&lt;div&gt;approve threshold&lt;/div&gt;&lt;div&gt;&amp;gt;= 20 &amp;amp; &amp;gt;=20%&lt;/div&gt;&lt;div&gt;can voting&lt;/div&gt;" style="rounded=0;whiteSpace=wrap;html=1;" vertex="1" parent="1">
          <mxGeometry x="840" y="550" width="120" height="60" as="geometry" />
        </mxCell>
        <mxCell id="Tn-8CT3KJRF8G7JqvR9h-2225" style="edgeStyle=orthogonalEdgeStyle;rounded=0;orthogonalLoop=1;jettySize=auto;html=1;exitX=1;exitY=0.5;exitDx=0;exitDy=0;entryX=0;entryY=0.5;entryDx=0;entryDy=0;endArrow=none;endFill=0;" edge="1" parent="1" source="Tn-8CT3KJRF8G7JqvR9h-2211" target="Tn-8CT3KJRF8G7JqvR9h-2217">
          <mxGeometry relative="1" as="geometry" />
        </mxCell>
        <mxCell id="Tn-8CT3KJRF8G7JqvR9h-2211" value="&lt;div&gt;fee 10 000&lt;/div&gt;&lt;div&gt;approve by direction&lt;/div&gt;&lt;div&gt;threshold&lt;/div&gt;&lt;div&gt;&amp;gt;=66%&lt;/div&gt;can&lt;b&gt; veto&lt;/b&gt; voting" style="rounded=0;whiteSpace=wrap;html=1;" vertex="1" parent="1">
          <mxGeometry x="840" y="630" width="120" height="90" as="geometry" />
        </mxCell>
        <mxCell id="Tn-8CT3KJRF8G7JqvR9h-2213" value="can pay for &lt;span class=&quot;VIiyi&quot; lang=&quot;en&quot;&gt;&lt;span class=&quot;JLqJ4b ChMk0b&quot;&gt;&lt;span&gt;member request&lt;/span&gt;&lt;/span&gt;&lt;/span&gt; " style="rounded=0;whiteSpace=wrap;html=1;" vertex="1" parent="1">
          <mxGeometry x="990" y="310" width="120" height="60" as="geometry" />
        </mxCell>
        <mxCell id="Tn-8CT3KJRF8G7JqvR9h-2214" value="can pay for expert&lt;span class=&quot;VIiyi&quot; lang=&quot;en&quot;&gt;&lt;span class=&quot;JLqJ4b ChMk0b&quot;&gt;&lt;span&gt; request&lt;/span&gt;&lt;/span&gt;&lt;/span&gt; " style="rounded=0;whiteSpace=wrap;html=1;" vertex="1" parent="1">
          <mxGeometry x="990" y="390" width="120" height="60" as="geometry" />
        </mxCell>
        <mxCell id="Tn-8CT3KJRF8G7JqvR9h-2215" value="&lt;div&gt;get 5000 vesting&lt;/div&gt;&lt;div&gt;can pay for direction&lt;span class=&quot;VIiyi&quot; lang=&quot;en&quot;&gt;&lt;span class=&quot;JLqJ4b ChMk0b&quot;&gt;&lt;span&gt; request&lt;/span&gt;&lt;/span&gt;&lt;/span&gt;&lt;/div&gt; " style="rounded=0;whiteSpace=wrap;html=1;" vertex="1" parent="1">
          <mxGeometry x="990" y="470" width="120" height="60" as="geometry" />
        </mxCell>
        <mxCell id="Tn-8CT3KJRF8G7JqvR9h-2216" value="&lt;div&gt;get 50 000 vesting&lt;/div&gt;&lt;div&gt;can pay for ballots&lt;span class=&quot;VIiyi&quot; lang=&quot;en&quot;&gt;&lt;span class=&quot;JLqJ4b ChMk0b&quot;&gt;&lt;span&gt; request&lt;/span&gt;&lt;/span&gt;&lt;/span&gt;&lt;/div&gt; " style="rounded=0;whiteSpace=wrap;html=1;" vertex="1" parent="1">
          <mxGeometry x="990" y="550" width="120" height="60" as="geometry" />
        </mxCell>
        <mxCell id="Tn-8CT3KJRF8G7JqvR9h-2217" value="tokenback when president" style="rounded=0;whiteSpace=wrap;html=1;" vertex="1" parent="1">
          <mxGeometry x="990" y="630" width="120" height="60" as="geometry" />
        </mxCell>
        <mxCell id="Tn-8CT3KJRF8G7JqvR9h-2227" value="dao bridge" style="rounded=0;whiteSpace=wrap;html=1;" vertex="1" parent="1">
          <mxGeometry x="250" y="310" width="120" height="60" as="geometry" />
        </mxCell>
        <mxCell id="Tn-8CT3KJRF8G7JqvR9h-2228" value="dao another project" style="rounded=0;whiteSpace=wrap;html=1;" vertex="1" parent="1">
          <mxGeometry x="460" y="310" width="120" height="60" as="geometry" />
        </mxCell>
        <mxCell id="Tn-8CT3KJRF8G7JqvR9h-2237" value="FINTEH tokens" style="text;html=1;strokeColor=none;fillColor=none;align=center;verticalAlign=middle;whiteSpace=wrap;rounded=0;" vertex="1" parent="1">
          <mxGeometry x="585" y="130" width="95" height="20" as="geometry" />
        </mxCell>
        <mxCell id="Tn-8CT3KJRF8G7JqvR9h-2238" value="FINTEH tokens" style="text;html=1;strokeColor=none;fillColor=none;align=center;verticalAlign=middle;whiteSpace=wrap;rounded=0;" vertex="1" parent="1">
          <mxGeometry x="420" y="230" width="95" height="20" as="geometry" />
        </mxCell>
        <mxCell id="Tn-8CT3KJRF8G7JqvR9h-2239" value="FINTEH tokens" style="text;html=1;strokeColor=none;fillColor=none;align=center;verticalAlign=middle;whiteSpace=wrap;rounded=0;" vertex="1" parent="1">
          <mxGeometry x="140" y="230" width="95" height="20" as="geometry" />
        </mxCell>
        <mxCell id="Tn-8CT3KJRF8G7JqvR9h-2240" value="FINTEH tokens" style="text;html=1;strokeColor=none;fillColor=none;align=center;verticalAlign=middle;whiteSpace=wrap;rounded=0;rotation=-90;" vertex="1" parent="1">
          <mxGeometry x="250" y="250" width="95" height="20" as="geometry" />
        </mxCell>
        <mxCell id="Tn-8CT3KJRF8G7JqvR9h-2252" style="edgeStyle=orthogonalEdgeStyle;rounded=0;orthogonalLoop=1;jettySize=auto;html=1;exitX=0;exitY=0.3333333333333333;exitDx=0;exitDy=0;exitPerimeter=0;entryX=0;entryY=0.5;entryDx=0;entryDy=0;endArrow=classic;endFill=1;" edge="1" parent="1" source="Tn-8CT3KJRF8G7JqvR9h-2242" target="Tn-8CT3KJRF8G7JqvR9h-2186">
          <mxGeometry relative="1" as="geometry">
            <Array as="points">
              <mxPoint x="40" y="475" />
              <mxPoint x="40" y="40" />
            </Array>
          </mxGeometry>
        </mxCell>
        <mxCell id="Tn-8CT3KJRF8G7JqvR9h-2264" style="edgeStyle=orthogonalEdgeStyle;rounded=0;orthogonalLoop=1;jettySize=auto;html=1;exitX=1;exitY=0.3333333333333333;exitDx=0;exitDy=0;exitPerimeter=0;entryX=1;entryY=0.75;entryDx=0;entryDy=0;startArrow=classic;startFill=1;endArrow=none;endFill=0;" edge="1" parent="1" source="Tn-8CT3KJRF8G7JqvR9h-2242" target="Tn-8CT3KJRF8G7JqvR9h-2187">
          <mxGeometry relative="1" as="geometry">
            <Array as="points">
              <mxPoint x="110" y="475" />
            </Array>
          </mxGeometry>
        </mxCell>
        <mxCell id="Tn-8CT3KJRF8G7JqvR9h-2242" value="maintainer" style="shape=umlActor;verticalLabelPosition=bottom;verticalAlign=top;html=1;outlineConnect=0;" vertex="1" parent="1">
          <mxGeometry x="80" y="455" width="30" height="60" as="geometry" />
        </mxCell>
        <mxCell id="Tn-8CT3KJRF8G7JqvR9h-2249" style="edgeStyle=orthogonalEdgeStyle;rounded=0;orthogonalLoop=1;jettySize=auto;html=1;exitX=1;exitY=0.3333333333333333;exitDx=0;exitDy=0;exitPerimeter=0;endArrow=classic;endFill=1;" edge="1" parent="1" source="Tn-8CT3KJRF8G7JqvR9h-2243" target="Tn-8CT3KJRF8G7JqvR9h-2185">
          <mxGeometry relative="1" as="geometry" />
        </mxCell>
        <mxCell id="Tn-8CT3KJRF8G7JqvR9h-2243" value="investor" style="shape=umlActor;verticalLabelPosition=bottom;verticalAlign=top;html=1;outlineConnect=0;" vertex="1" parent="1">
          <mxGeometry x="100" y="70" width="30" height="60" as="geometry" />
        </mxCell>
        <mxCell id="Tn-8CT3KJRF8G7JqvR9h-2265" style="edgeStyle=orthogonalEdgeStyle;rounded=0;orthogonalLoop=1;jettySize=auto;html=1;exitX=0;exitY=0.3333333333333333;exitDx=0;exitDy=0;exitPerimeter=0;entryX=1;entryY=0.5;entryDx=0;entryDy=0;startArrow=none;startFill=0;endArrow=classic;endFill=1;" edge="1" parent="1" source="Tn-8CT3KJRF8G7JqvR9h-2244" target="Tn-8CT3KJRF8G7JqvR9h-2186">
          <mxGeometry relative="1" as="geometry" />
        </mxCell>
        <mxCell id="Tn-8CT3KJRF8G7JqvR9h-2244" value="donator" style="shape=umlActor;verticalLabelPosition=bottom;verticalAlign=top;html=1;outlineConnect=0;" vertex="1" parent="1">
          <mxGeometry x="470" y="20" width="30" height="60" as="geometry" />
        </mxCell>
        <mxCell id="Tn-8CT3KJRF8G7JqvR9h-2255" value="USDT" style="text;whiteSpace=wrap;html=1;" vertex="1" parent="1">
          <mxGeometry x="130" y="70" width="60" height="30" as="geometry" />
        </mxCell>
        <mxCell id="Tn-8CT3KJRF8G7JqvR9h-2261" value="FINTEH tokens" style="text;html=1;strokeColor=none;fillColor=none;align=center;verticalAlign=middle;whiteSpace=wrap;rounded=0;" vertex="1" parent="1">
          <mxGeometry x="130" y="460" width="95" height="20" as="geometry" />
        </mxCell>
      </root>
    </mxGraphModel>
  </diagram>
</mxfile>
